<svg width="155" height="32" viewBox="0 0 155 32" fill="none" xmlns="http://www.w3.org/2000/svg">
<path d="M123 26.016V6.016C123 4.352 123.587 2.93333 124.76 1.76C125.933 0.586667 127.352 0 129.016 0H149.016C150.659 0 152.067 0.586667 153.24 1.76C154.413 2.93333 155 4.352 155 6.016V26.016C155 27.68 154.413 29.088 153.24 30.24C152.067 31.392 150.659 31.9787 149.016 32H129.016C127.352 32 125.933 31.4133 124.76 30.24C123.587 29.0667 123 27.6587 123 26.016ZM127 26.016C127 26.5707 127.192 27.04 127.576 27.424C127.96 27.808 128.44 28 129.016 28H149.016C149.549 28 150.019 27.808 150.424 27.424C150.829 27.04 151.021 26.5707 151 26.016V6.016C151 5.46133 150.808 4.992 150.424 4.608C150.04 4.224 149.571 4.02133 149.016 4H129.016C128.461 4 127.981 4.20267 127.576 4.608C127.171 5.01333 126.979 5.48267 127 6.016V26.016ZM131 18.016H133.016V16H131V18.016ZM131 10.016H133.016V8H131V10.016ZM133.016 16H135V14.016H133.016V16ZM133.016 12H135V10.016H133.016V12ZM135 14.016H137.016V12H135V14.016ZM137.016 18.016H143V16H137.016V18.016Z" fill="white"/>
<path fill-rule="evenodd" clip-rule="evenodd" d="M0 5.33333C0 2.38782 2.14904 0 4.8 0H27.2C29.851 0 32 2.38782 32 5.33333V21.3333C32 24.2789 29.851 26.6667 27.2 26.6667H17.6V28.4444H20.8C21.6837 28.4444 22.4 29.2404 22.4 30.2222C22.4 31.2041 21.6837 32 20.8 32H11.2C10.3164 32 9.6 31.2041 9.6 30.2222C9.6 29.2404 10.3164 28.4444 11.2 28.4444H14.4V26.6667H4.8C2.14904 26.6667 0 24.2789 0 21.3333V5.33333ZM4.8 3.55556C3.91635 3.55556 3.2 4.3515 3.2 5.33333V21.3333C3.2 22.3152 3.91635 23.1111 4.8 23.1111H27.2C28.0837 23.1111 28.8 22.3152 28.8 21.3333V5.33333C28.8 4.3515 28.0837 3.55556 27.2 3.55556H4.8Z" fill="white"/>
<path d="M57 0C48.164 0 41 7.164 41 16C41 24.836 48.164 32 57 32C65.836 32 73 24.836 73 16C73 7.164 65.836 0 57 0ZM57 2.46133C64.46 2.47067 70.504 8.52133 70.504 15.9827C70.504 23.4507 64.4507 29.504 56.9827 29.504C49.5147 29.504 43.4613 23.4507 43.4613 15.9827C43.4613 12.2493 44.9747 8.86933 47.4213 6.42267C49.8707 3.976 53.2533 2.46267 56.9893 2.46267H56.9987L57 2.46133ZM57 6.15467C51.144 7.18667 45.9227 12.5867 45.9227 18.4613C48.788 13.4027 50.7013 13.0387 51.2307 13.0387C51.76 13.0387 52.0387 13.3133 52.0387 13.9227V21.4613C52.0387 22.3987 50.2173 22.2453 49.6147 22.1533C51.8413 25.4667 57 25.8467 57 25.8467L59.4613 23.3853L61.9227 24.616C65.808 22.8373 68.076 19.0293 68.076 18.4627C67.1413 19.62 65.8813 20.4827 64.4347 20.9107L64.3827 20.924C64.056 20.924 63.152 20.756 63.152 20.308V11.384C63.152 10.6093 64.9413 8.24533 65.6133 7.384C61.1707 8.548 59.8827 10.576 59.8827 10.576C59.8827 10.576 59.5453 9.84533 58.2293 9.84533C58.8973 10.476 59.3467 11.3307 59.4587 12.288L59.46 12.3067V19.8453C58.76 20.3427 57.9347 20.716 57.0427 20.9133L56.9973 20.9213C56.144 20.9213 55.728 20.5747 55.728 19.9213C55.728 19.268 55.7667 11.076 55.7667 11.076C55.7667 11.076 54.536 11.528 54.536 8.99867C54.536 7.73333 56.9973 6.152 56.9973 6.152L57 6.15467Z" fill="white"/>
<path d="M108.605 25.6676L102.863 16.0011L108.605 6.33022L111.377 15.9989L108.604 25.6655L108.605 25.6676ZM95.8079 24.7394L88.5865 17.5727H100.066L105.807 27.2403L95.8068 24.7415L95.8079 24.7394ZM95.8079 7.2606L105.807 4.7618L100.067 14.4294H88.5854L95.8079 7.2606ZM114 12.7106L110.498 0L97.4265 3.40678L95.4931 6.72713L91.5666 6.69832L82 16.0011L91.5677 25.3049L95.492 25.2739L97.4308 28.5943L110.497 32L114 19.2947L112.011 16.0011L114 12.7106Z" fill="white"/>
</svg>
