<svg width="42" height="42" viewBox="0 0 32 32" fill="none" xmlns="http://www.w3.org/2000/svg">
<path d="M27.2025 9.56519C27.1098 9.48438 27.0057 9.41038 26.8913 9.34475L26.7741 9.32369C26.7127 9.30069 26.6637 9.26294 26.6318 9.21731C26.4486 9.14288 26.2568 9.09488 26.0617 9.07088C25.8933 9.05075 25.775 8.91606 25.7994 8.77C25.8221 8.624 25.9797 8.52213 26.1482 8.54219C26.3411 8.56669 26.5345 8.60887 26.72 8.67156C26.7501 8.55494 26.7672 8.43588 26.7672 8.31588C26.7666 8.05325 26.695 7.78819 26.5425 7.53881C26.3683 7.25369 26.1129 7.03125 25.8142 6.87944C25.5524 6.74619 25.2566 6.66681 24.9527 6.64819C24.9306 6.88675 24.8646 7.12438 24.7496 7.35463C24.6813 7.48981 24.4999 7.55206 24.3423 7.49375C24.1852 7.43594 24.1124 7.27919 24.1802 7.14394C24.2905 6.92206 24.3423 6.69375 24.3435 6.46738L24.3395 6.37088C24.3184 6.05731 24.1978 5.75456 23.9924 5.49638C23.787 5.23863 23.4991 5.0275 23.1407 4.89375C22.8835 4.79919 22.6172 4.75463 22.3549 4.75463C21.8525 4.75463 21.366 4.92125 20.9985 5.21513C21.0673 5.4165 21.1066 5.62863 21.1066 5.84913C21.1066 5.99613 20.9667 6.11563 20.796 6.11563C20.6252 6.11563 20.4859 5.99613 20.4859 5.84913C20.4859 5.63306 20.4398 5.42825 20.3556 5.23769H20.3562C20.2133 4.91681 19.9607 4.6405 19.637 4.4455C19.3144 4.25056 18.9235 4.13638 18.498 4.13638C18.1287 4.13638 17.7845 4.22313 17.4886 4.373C17.2519 4.4935 17.0477 4.65619 16.8873 4.84725C17.2008 5.21713 17.3862 5.67425 17.3862 6.16713C17.3862 6.31406 17.2468 6.43313 17.0755 6.43313C16.9048 6.43313 16.7655 6.31406 16.7655 6.16713C16.7655 5.73406 16.5805 5.34013 16.2728 5.03881C15.9075 4.67969 15.3744 4.45488 14.777 4.45488C14.3622 4.45488 13.9804 4.56313 13.6612 4.74931C13.3432 4.9355 13.09 5.19906 12.9403 5.50869C12.8436 5.711 12.7884 5.93394 12.7884 6.16713C12.7884 6.31406 12.6501 6.43313 12.4789 6.43313C12.3076 6.43313 12.1694 6.31406 12.1694 6.16713C12.1694 5.95056 12.2059 5.74188 12.2718 5.54294C12.0385 5.46163 11.786 5.41656 11.5265 5.41656C11.3792 5.41656 11.2313 5.43125 11.081 5.46019C10.6395 5.54788 10.2703 5.75269 9.99997 6.02994C9.80537 6.22988 9.66652 6.46744 9.5943 6.72269C10.2344 6.73244 10.8739 6.94556 11.3678 7.362C11.4896 7.46538 11.4918 7.63394 11.3724 7.73875C11.2523 7.84456 11.0566 7.84556 10.9343 7.74313C10.5462 7.41738 10.0461 7.25419 9.54313 7.25369C9.45327 7.25369 9.36334 7.25906 9.27341 7.26888H9.27232H9.27174C8.85017 7.31931 8.44393 7.48488 8.12129 7.76813C7.74233 8.10125 7.55456 8.53144 7.55405 8.9655C7.55405 9.21294 7.61662 9.46225 7.74175 9.69156C7.83902 9.87231 7.97562 10.0409 8.152 10.1888V10.1893C8.35116 10.3578 8.58104 10.4822 8.8263 10.5636C8.98496 10.617 9.06524 10.7713 9.00267 10.9084C8.94069 11.0466 8.76199 11.1153 8.60216 11.0613C8.28185 10.9545 7.97917 10.7909 7.71737 10.5699C7.60305 10.4729 7.50114 10.3696 7.41077 10.2599C7.17691 10.5484 7.05003 10.8938 7.05003 11.2456C7.05003 11.518 7.12574 11.7928 7.28557 12.051C7.46536 12.3401 7.72542 12.5654 8.03151 12.7192C8.27328 12.8412 8.54358 12.9182 8.82238 12.9451L8.8218 12.9289C8.8218 12.7878 8.83718 12.6497 8.86505 12.5154C8.89692 12.3704 9.05907 12.2758 9.22637 12.3018C9.39477 12.3288 9.50575 12.4679 9.47555 12.6129C9.45334 12.7152 9.44144 12.8216 9.44144 12.9289L9.44652 13.0529L9.463 13.1778V13.1793L9.46358 13.1817C9.60584 14.0185 10.4456 14.6441 11.4288 14.6441L11.5716 14.6392H11.5722C12.008 14.6123 12.3994 14.4672 12.7101 14.2414C12.928 14.0831 13.1066 13.8848 13.229 13.6613C13.3012 13.5275 13.4872 13.4708 13.6415 13.5339C13.7962 13.5966 13.8623 13.7553 13.7894 13.8886C13.6569 14.1292 13.4759 14.3462 13.2586 14.5309C13.3803 14.8533 13.609 15.1301 13.9078 15.3358C14.2492 15.5715 14.6799 15.7106 15.1453 15.7106L15.2887 15.7058H15.2893C15.584 15.6876 15.8565 15.6146 16.0984 15.5009C16.0608 15.3476 16.0392 15.1909 16.0392 15.0321C16.0392 14.7048 16.124 14.3712 16.2992 14.0576C16.3737 13.9249 16.5586 13.8695 16.7123 13.9337C16.8664 13.9969 16.9319 14.1566 16.8574 14.2894C16.7225 14.5299 16.6594 14.7827 16.6594 15.0321C16.6594 15.2065 16.6906 15.3804 16.751 15.5455H16.7515C16.9103 15.9811 17.2688 16.3617 17.7848 16.5753C18.0636 16.6914 18.3572 16.7458 18.6462 16.7458C19.1053 16.7458 19.5543 16.6076 19.9104 16.3573L19.9116 16.3568C20.1278 16.2034 20.3088 16.0094 20.439 15.7777L20.4396 15.7767C20.5608 15.5602 20.6245 15.3334 20.6353 15.107C20.6432 14.96 20.7872 14.8454 20.959 14.8523C21.1297 14.8586 21.2617 14.983 21.2542 15.13C21.2394 15.4269 21.1558 15.7267 20.9971 16.0094V16.0089C20.8696 16.2377 20.7018 16.4391 20.505 16.611C20.8702 17.0627 21.4779 17.3474 22.135 17.3469C22.2568 17.3469 22.3808 17.3371 22.5054 17.3165C22.9839 17.2391 23.3873 17.0211 23.6741 16.7212C23.9603 16.4209 24.127 16.0393 24.127 15.6365L24.1264 15.6003V15.5983C24.1242 15.5077 24.1134 15.4127 24.0929 15.3171C24.0434 15.0902 23.9427 14.8844 23.8045 14.7027C23.6042 14.5508 23.3817 14.3524 23.1718 14.1319C22.9482 13.8968 22.7423 13.6396 22.604 13.3804C22.513 13.207 22.4481 13.0316 22.4469 12.8469C22.4469 12.7651 22.46 12.6804 22.4959 12.5991C22.5306 12.5163 22.5875 12.4379 22.6637 12.3732C22.7843 12.2698 22.98 12.2698 23.1012 12.3732C23.2218 12.478 23.2218 12.6475 23.1012 12.7509L23.0778 12.7828L23.0659 12.847C23.0648 12.9141 23.0972 13.0278 23.1672 13.1586C23.2366 13.2889 23.3396 13.4354 23.4608 13.5799C23.7009 13.8694 24.0121 14.1536 24.2465 14.327L24.2784 14.3506L24.3017 14.3804C24.4935 14.6264 24.634 14.9096 24.7017 15.2187V15.2192L24.7239 15.3514L24.8166 15.3549C25.2092 15.3544 25.6046 15.2544 25.9523 15.0442C26.2288 14.8767 26.4393 14.6616 26.5816 14.4201C26.7244 14.1781 26.7989 13.9106 26.7989 13.6411C26.7989 13.3888 26.7328 13.1355 26.6009 12.8999C26.4785 12.9337 26.3545 12.9606 26.2288 12.9792C26.0604 13.0052 25.9005 12.9067 25.8703 12.7618C25.8418 12.6163 25.9557 12.4791 26.1241 12.4536C26.6725 12.3723 27.1749 12.0969 27.4856 11.655C27.6825 11.3772 27.7752 11.0715 27.7752 10.7692C27.7752 10.3239 27.5755 9.88838 27.2034 9.5655L27.2025 9.56519ZM13.0087 7.53006C13.3045 7.22875 13.6972 7.01463 14.1193 6.8745C14.5432 6.73438 14.9972 6.66725 15.4331 6.66725C15.8569 6.66775 16.2643 6.7295 16.6102 6.86769C16.765 6.92838 16.8327 7.08763 16.761 7.22138C16.6898 7.35469 16.5061 7.41344 16.3496 7.35175C16.1107 7.25525 15.7835 7.19988 15.4331 7.19988C15.0723 7.19988 14.6878 7.25713 14.3423 7.37281C13.997 7.48694 13.6937 7.65744 13.4803 7.874C13.3711 7.98669 13.1748 8.00138 13.044 7.90538C12.9137 7.81031 12.8972 7.64225 13.0087 7.53006ZM20.0592 13.8372C19.6991 13.8372 19.3724 13.802 19.0743 13.7427C19.0823 13.8162 19.088 13.898 19.088 13.9848C19.088 14.1587 19.0658 14.3575 19.0026 14.5662C18.9389 14.7744 18.8314 14.9934 18.6619 15.2036C18.5646 15.3251 18.3717 15.355 18.2311 15.2712C18.09 15.1874 18.0559 15.0218 18.152 14.8998C18.2772 14.7445 18.3551 14.5857 18.403 14.4295C18.4508 14.2732 18.4684 14.1213 18.4684 13.9847C18.469 13.7961 18.4354 13.6407 18.4115 13.5521C18.2602 13.4932 18.1207 13.4271 17.9905 13.3531C17.4716 13.0641 17.1246 12.6824 16.9066 12.3194C16.7605 12.0759 16.6716 11.8407 16.6239 11.6364C16.5966 11.5198 16.5829 11.4141 16.5829 11.3179C16.5829 11.17 16.7218 11.0504 16.893 11.0504C17.0642 11.0504 17.2031 11.17 17.2031 11.3179C17.2025 11.3953 17.2219 11.5252 17.2708 11.6727C17.3197 11.8206 17.3977 11.9887 17.5103 12.1577C17.7362 12.4977 18.0952 12.8382 18.6494 13.0592C19.0198 13.2071 19.4806 13.3031 20.0592 13.3031C20.2305 13.3031 20.3693 13.4227 20.3693 13.5701C20.3693 13.7178 20.2305 13.8372 20.0592 13.8372ZM22.2407 11.8893C22.1769 12.0256 21.9966 12.0922 21.8372 12.0378C21.6785 11.9829 21.6023 11.8286 21.6649 11.6919V11.6914L21.6666 11.6874L21.6757 11.6639L21.7076 11.5679C21.731 11.4837 21.7549 11.3646 21.7549 11.2338L21.7543 11.2152C21.3287 11.3396 20.9339 11.3954 20.5703 11.3954C20.0207 11.3964 19.5451 11.2666 19.1581 11.0697C18.7707 10.8728 18.4691 10.6121 18.2438 10.3471C17.9878 10.0467 17.6521 9.77731 17.2675 9.58675C16.8817 9.39563 16.4505 9.282 15.9925 9.281C15.5914 9.282 15.1646 9.36819 14.7191 9.57887C14.2964 9.77875 14.0244 10.0448 13.8486 10.3368C13.674 10.6293 13.6 10.9486 13.6005 11.2397C13.5994 11.5091 13.6654 11.7531 13.7513 11.9069C13.8247 12.0402 13.7581 12.1989 13.604 12.2621C13.4498 12.3254 13.2648 12.268 13.1915 12.1353C13.0566 11.8893 12.9816 11.5796 12.9804 11.2397C12.981 10.9016 13.0589 10.5322 13.2507 10.179C12.8661 10.254 12.5088 10.2873 12.1834 10.2873C12.0076 10.2873 11.8419 10.2775 11.6843 10.2599L11.6269 10.3598L11.6263 10.3608L11.6217 10.3648L11.6052 10.3829L11.5392 10.4603C11.4828 10.5299 11.4049 10.6313 11.3201 10.7606C11.1511 11.0168 10.9577 11.3784 10.8638 11.7844C10.8303 11.929 10.6675 12.0236 10.4996 11.9941C10.3318 11.9653 10.2225 11.8251 10.2573 11.6796C10.3688 11.198 10.5891 10.7884 10.7807 10.4969C10.8808 10.3461 10.9725 10.2266 11.0396 10.1452C10.787 10.0801 10.5685 10.0002 10.3899 9.91881C9.98197 9.73213 9.76966 9.545 9.75152 9.52981C9.63313 9.4235 9.63654 9.25494 9.75943 9.15256C9.88289 9.05069 10.0781 9.05363 10.197 9.15844L10.2004 9.16138L10.2186 9.17656L10.3074 9.24069C10.3881 9.29556 10.5128 9.37106 10.6794 9.44744C11.014 9.59931 11.5136 9.75319 12.1832 9.75419C12.6537 9.75419 13.2084 9.67681 13.8531 9.46319C14.0164 9.33237 14.2047 9.21287 14.4209 9.11094C14.9512 8.86062 15.4854 8.74794 15.9923 8.74794C16.5715 8.74794 17.1103 8.893 17.5769 9.12419C18.0434 9.35644 18.4389 9.67437 18.7432 10.032C18.9282 10.248 19.1711 10.4573 19.4721 10.6096C19.7748 10.7624 20.1326 10.8619 20.5701 10.8624C20.87 10.8624 21.2079 10.8144 21.5903 10.6987C21.497 10.5699 21.3582 10.4454 21.1295 10.3328C20.9804 10.2598 20.9275 10.0971 21.0117 9.96925C21.0964 9.84037 21.2848 9.79625 21.4338 9.86781C21.8002 10.0457 22.0455 10.2813 22.1877 10.5278C22.3316 10.7732 22.3743 11.0221 22.3743 11.2338C22.3726 11.6033 22.2491 11.8703 22.2407 11.8893ZM22.1246 8.62113C21.4009 8.62113 20.7676 8.45306 20.2556 8.19881C20.1834 8.28506 20.0866 8.39331 19.962 8.51087C19.6815 8.77594 19.2695 9.08706 18.7183 9.2575C18.5561 9.3065 18.3797 9.235 18.3222 9.09587C18.2648 8.95669 18.3495 8.80438 18.5094 8.75538C18.9163 8.63044 19.2565 8.385 19.4921 8.16306C19.6013 8.06162 19.6861 7.96563 19.7476 7.89213C19.442 7.66975 19.2008 7.41644 19.0352 7.15581C18.8782 6.90594 18.7871 6.64825 18.786 6.39788C18.786 6.25094 18.9249 6.13138 19.0961 6.13138C19.2668 6.13138 19.4056 6.25094 19.4056 6.39788C19.4045 6.53263 19.4591 6.71244 19.5797 6.90106C19.6986 7.09013 19.8795 7.28706 20.1162 7.4635C20.5896 7.81675 21.2729 8.08713 22.1247 8.08713C22.2959 8.08713 22.4342 8.20719 22.4342 8.35462C22.4341 8.50156 22.2958 8.62113 22.1246 8.62113ZM24.5665 12.3773C24.4579 12.49 24.2621 12.5066 24.1301 12.4121C23.9982 12.3185 23.98 12.15 24.088 12.0368C24.426 11.6836 24.5506 11.3279 24.5517 10.9874C24.5529 10.6773 24.4425 10.3779 24.2695 10.1257C24.0988 9.87381 23.8627 9.672 23.6357 9.55981C23.4832 9.48438 23.3399 9.45056 23.226 9.45056C23.0548 9.45056 22.9166 9.33156 22.9166 9.18406C22.9166 9.03663 23.0548 8.91706 23.226 8.91706C23.4143 8.91706 23.5987 8.95675 23.774 9.02337C23.9486 9.08906 24.1137 9.18262 24.2673 9.29681C24.5739 9.52506 24.8345 9.83569 24.9984 10.1998C25.1065 10.4427 25.1724 10.7093 25.1724 10.9875C25.173 11.445 24.9916 11.9349 24.5665 12.3773Z" fill="white"/>
<path d="M9.93631 25.7412L9.95743 25.7574C9.95685 25.7569 9.95685 25.7569 9.95627 25.7564L9.93631 25.7412Z" fill="white"/>
<path d="M28.5351 4.16087C26.2301 1.84012 22.7635 0.259688 18.3217 0.028875C17.9603 0.00975 17.6008 0 17.2446 0C13.5088 0 10.0723 1.0445 7.55296 2.96206C5.03192 4.87469 3.46216 7.67506 3.46782 11.0291C3.46782 11.105 3.4684 11.1809 3.47007 11.2574L3.46615 11.662L0.259486 16.5381C0.0871002 16.8012 0 17.0947 0 17.3882C0 17.6331 0.0603896 17.8791 0.18262 18.1083C0.441525 18.5948 0.950698 18.9446 1.55379 19.0651L1.55263 19.0695L3.02738 19.4193L3.61001 24.2582L3.61458 24.2577C3.65559 24.9627 4.02083 25.6246 4.64106 26.0891C5.1924 26.5026 5.89617 26.7269 6.6199 26.7269C6.69321 26.7269 6.7655 26.7211 6.83837 26.7167L8.50939 26.8308L8.59308 26.823L8.61979 26.822C8.68403 26.822 8.74383 26.8416 8.78992 26.8774L8.79268 26.8799C8.84567 26.921 8.87695 26.9812 8.87695 27.043V32H24.4795V31.2475C24.4795 31.2475 24.4795 29.209 24.4795 28.3958C24.4777 28.0684 24.5534 27.4213 24.7025 26.7971C24.7765 26.4841 24.868 26.172 24.9717 25.9021C25.0741 25.6327 25.1925 25.4034 25.2914 25.2696C26.3292 23.8292 27.7965 22.6476 29.1404 20.9765C30.4826 19.3069 31.6267 17.1409 31.9402 13.8546C31.98 13.4426 32 13.0305 32 12.6205C32 9.50494 30.8439 6.47962 28.5351 4.16087ZM30.1981 13.729C29.8949 16.7837 28.9026 18.6115 27.7009 20.1229C26.501 21.6329 25.0172 22.8199 23.8092 24.4715C23.5988 24.7635 23.4445 25.0869 23.312 25.4307C23.1151 25.9457 22.9746 26.5071 22.8784 27.0299C22.7828 27.5541 22.7323 28.0293 22.7317 28.3958C22.7317 28.918 22.7317 29.7078 22.7317 30.495H10.6248V27.0431C10.6248 26.5526 10.3824 26.0857 9.95786 25.7581C9.58747 25.4714 9.10958 25.3166 8.61972 25.3166C8.58386 25.3166 8.54917 25.32 8.51389 25.322L6.84462 25.2074L6.76267 25.2152L6.6199 25.2221C6.31606 25.2221 6.02021 25.1275 5.7886 24.9541C5.5212 24.7537 5.36297 24.4656 5.35274 24.1594L5.35223 24.1311L4.64331 18.2423L1.98625 17.6112L1.95438 17.6059C1.8736 17.5921 1.80595 17.5461 1.77118 17.4814L1.74781 17.3883L1.78083 17.2796L5.21047 12.0644L5.21788 11.2496V11.2388C5.21621 11.1683 5.21563 11.0987 5.21563 11.0292C5.22136 8.076 6.55436 5.73806 8.71074 4.0895C10.8694 2.44481 13.8838 1.50513 17.2446 1.50513C17.5649 1.50513 17.8881 1.51394 18.2136 1.53112L18.2676 0.780062L18.2141 1.53112C22.2383 1.74912 25.2004 3.13169 27.2082 5.14081C29.2127 7.15144 30.2522 9.82194 30.2522 12.6204C30.2522 12.9883 30.2346 13.3581 30.1981 13.729Z" fill="white"/>
</svg>
