<svg width="42" height="42" viewBox="0 0 42 42" fill="none" xmlns="http://www.w3.org/2000/svg">
<path d="M30.4737 3.12897C29.4249 2.63761 28.4338 2.17377 27.5305 1.72041C25.2166 0.562114 23.1203 0 21.1198 0C17.0924 0 14.3065 2.32183 12.5589 4.06845L4.08465 12.5473C-0.450094 17.0849 -1.17376 21.7036 1.73796 27.5252C2.19026 28.4293 2.65435 29.4225 3.14597 30.4747C5.79681 36.1417 8.5368 42 13.0217 42C13.1476 42 13.2721 41.9961 13.3993 41.9856C18.0271 41.6239 19.3407 35.6674 20.4997 30.4144C20.6832 29.5824 20.8589 28.7844 21.0372 28.069C21.3492 26.8321 21.9614 26.0643 23.6408 24.3819L23.8715 24.1499L24.0131 24.0084L24.3868 23.6363C26.0701 21.9539 26.8383 21.342 28.0785 21.0301C28.7878 20.8519 29.5836 20.6764 30.4147 20.4942C35.6679 19.3359 41.6238 18.023 41.9843 13.3885C42.3487 8.68722 36.3129 5.86092 30.4737 3.12897ZM39.2915 13.1514C39.0359 16.4179 31.7205 17.3823 27.3653 18.4738C25.4395 18.9599 24.2675 19.9793 22.4989 21.7469C22.3757 21.87 22.2511 21.9932 22.1266 22.1177C22.0021 22.2422 21.8788 22.3679 21.7556 22.4898C19.9871 24.26 18.9697 25.4301 18.4846 27.3575C17.3913 31.7142 16.429 39.0348 13.1646 39.2903C13.1056 39.2943 13.0466 39.2969 12.9876 39.2969C9.52398 39.2969 6.60963 31.4247 4.03876 26.2896C1.42725 21.0681 2.54554 17.6823 5.89645 14.3293C6.53884 13.686 7.33986 12.8867 8.31917 11.9066C9.31946 10.9055 10.5098 9.71448 11.9205 8.3033C12.8998 7.3232 13.6995 6.52524 14.3432 5.88058C16.4251 3.79853 18.52 2.57865 21.0581 2.57865C22.6064 2.57865 24.3212 3.0307 26.2969 4.02259C31.5186 6.63923 39.5668 9.60966 39.2915 13.1514ZM19.6396 14.4184H22.2616V11.7978H19.6396V14.4184ZM19.6396 10.4876H22.2616V7.86697H19.6396V10.4876ZM23.5726 10.4876H26.1946V7.86697H23.5726V10.4876ZM23.5726 14.4184H26.1946V11.7978H23.5726V14.4184ZM13.5396 22.2867L14.5372 21.2896C15.0289 20.7982 15.0289 20.0016 14.5372 19.5102C14.0456 19.0188 13.2498 19.0188 12.7582 19.5102L11.7605 20.5073L10.7629 19.5102C10.2712 19.0188 9.47547 19.0188 8.98385 19.5102C8.49222 20.0016 8.49222 20.7982 8.98385 21.2896L9.98152 22.2867L8.98385 23.2838C8.49222 23.7752 8.49222 24.5718 8.98385 25.0619C9.47547 25.5519 10.2726 25.5533 10.7629 25.0619L11.7605 24.0648L12.7871 25.0907C13.2787 25.5821 14.0745 25.5821 14.5661 25.0907C15.0577 24.5994 15.0577 23.8027 14.5661 23.3114L13.5396 22.2867Z" fill="white"/>
</svg>
