<svg width="61" height="42" viewBox="0 0 61 42" fill="none" xmlns="http://www.w3.org/2000/svg">
<path d="M45.8126 0L39.8984 5.91419L40.4482 6.4852C40.0565 6.80154 39.6601 7.11017 39.2753 7.38417C38.6543 7.82778 38.0581 8.18362 37.654 8.35051C37.6279 8.36214 37.5181 8.39298 37.3 8.39203C36.9518 8.39582 36.3693 8.3071 35.6556 8.19821C34.9389 8.09016 34.0816 7.97261 33.1152 7.97154C32.2721 7.9687 31.3424 8.07094 30.3635 8.33996C29.3866 8.07189 28.4587 7.97154 27.6177 7.97261C26.6503 7.97261 25.793 8.09027 25.0763 8.19928C24.3626 8.30817 23.7811 8.39701 23.4329 8.39309C23.214 8.39499 23.105 8.36225 23.0828 8.35158C22.6516 8.17508 22.0015 7.78152 21.3323 7.2945C20.9861 7.0428 20.6331 6.7669 20.2829 6.48342L20.8317 5.91431L14.9176 0.000118548L0 15.4508L5.91419 21.365L7.64536 19.5721L11.4666 22.9071C11.5736 23.5466 11.7752 24.1503 12.0077 24.7233C12.1591 25.088 12.325 25.4389 12.4949 25.7688C12.1254 26.3804 11.9239 27.0786 11.9258 27.7865C11.9248 28.4887 12.1177 29.2062 12.5141 29.8438C13.1169 30.8131 14.0824 31.4226 15.1249 31.6155C15.1308 32.3051 15.3218 33.0083 15.7104 33.6332C16.4483 34.8196 17.7253 35.4773 19.0273 35.4753C19.0774 35.4753 19.1286 35.4676 19.1786 35.4657C19.2442 36.0174 19.4256 36.5671 19.7361 37.0667C20.474 38.253 21.7518 38.9108 23.052 38.9088C23.1812 38.9088 23.3096 38.8953 23.4397 38.8827C23.5014 39.3795 23.6664 39.8751 23.9451 40.3227C24.6174 41.403 25.7805 42.0028 26.9638 42C27.6023 42.0009 28.2562 41.8273 28.8369 41.4666L30.6097 40.3634C30.9588 40.589 31.3252 40.7876 31.71 40.9497C32.4267 41.2515 33.2011 41.4367 34.0065 41.4376C34.8899 41.4416 35.8226 41.1995 36.625 40.6352C37.1477 40.2707 37.5904 39.771 37.953 39.1819C38.009 39.1837 38.0543 39.1935 38.1122 39.1944C38.4797 39.1944 38.8828 39.1394 39.2822 39.015C39.6843 38.8926 40.0837 38.7092 40.51 38.4653C41.5265 37.8924 42.136 37.0494 42.4322 36.3271C42.4978 36.1689 42.545 36.0203 42.5875 35.8767C42.8335 35.7986 43.0688 35.703 43.2818 35.5797C44.0679 35.1273 44.5801 34.4397 44.8955 33.7491C45.2118 33.0517 45.3507 32.3274 45.3526 31.6311C45.3526 31.5626 45.3439 31.496 45.341 31.4286C45.855 31.2184 46.3169 30.9261 46.7105 30.5818C47.1137 30.2287 47.4522 29.8179 47.7039 29.3491C47.9547 28.8824 48.1226 28.348 48.1235 27.7627C48.1245 27.3817 48.0463 26.9804 47.8756 26.6043C47.8206 26.4847 47.7425 26.3748 47.6711 26.2639C47.9712 25.7266 48.2768 25.121 48.5275 24.4671C48.7157 23.9723 48.8739 23.4535 48.9645 22.9084L52.9487 19.4315L54.8159 21.3653L60.7301 15.4508L45.8126 0ZM16.4569 28.6421L16.3884 28.6855C16.21 28.7956 16.0228 28.8447 15.8299 28.8456C15.4721 28.8437 15.1287 28.6691 14.9272 28.3441C14.8172 28.1657 14.767 27.9776 14.767 27.7866C14.7689 27.4269 14.9426 27.0854 15.2666 26.8839L17.6094 25.4285C17.7878 25.3176 17.9749 25.2694 18.1658 25.2674C18.5255 25.2712 18.867 25.443 19.0696 25.7699L20.2762 25.0205L19.0696 25.7708C19.1796 25.9483 19.2287 26.1353 19.2297 26.3264C19.2277 26.5771 19.1381 26.8164 18.9762 27.0093L16.9641 28.2592C16.781 28.373 16.6141 28.5051 16.4569 28.6421ZM19.5846 32.4739C19.4062 32.5839 19.2191 32.634 19.0272 32.634C18.6683 32.6321 18.3251 32.4585 18.1234 32.1335C18.0134 31.9551 17.9643 31.766 17.9633 31.575C17.9641 31.3263 18.0539 31.0871 18.215 30.8961L20.2279 29.6433C20.4102 29.5304 20.5752 29.3993 20.7323 29.2623L20.8056 29.218C20.984 29.1071 21.1722 29.0578 21.3622 29.0578C21.7229 29.0597 22.0633 29.2334 22.2658 29.5593C22.3757 29.7377 22.425 29.9238 22.4259 30.1159C22.424 30.4736 22.2514 30.817 21.9235 31.0205L19.5846 32.4739ZM25.9492 34.4531L23.6094 35.9075C23.432 36.0176 23.2448 36.0677 23.052 36.0677C22.6941 36.0658 22.3507 35.8921 22.1492 35.5671C22.0392 35.3878 21.9901 35.2006 21.9891 35.0087C21.992 34.6489 22.1646 34.3085 22.4887 34.1059L24.8314 32.6505C25.0098 32.5396 25.197 32.4915 25.3878 32.4915C25.7476 32.4923 26.0891 32.6659 26.2916 32.992C26.4015 33.1705 26.4507 33.3576 26.4518 33.5495C26.4498 33.9071 26.2772 34.2485 25.9492 34.4531ZM29.5766 36.8256C29.6508 36.9442 29.6827 37.0677 29.6836 37.1969C29.6817 37.437 29.5669 37.6656 29.3461 37.8036L27.337 39.0515C27.2174 39.1267 27.0939 39.1585 26.9637 39.1585C26.7227 39.1575 26.4941 39.0408 26.3581 38.8229C26.2838 38.7023 26.2519 38.5788 26.251 38.4498C26.2538 38.2076 26.3686 37.9809 26.5856 37.8459H26.5865L28.5975 36.596C28.72 36.5198 28.8425 36.4879 28.9708 36.4879C29.2129 36.4898 29.4395 36.6046 29.5755 36.8236L30.7829 36.0751L29.5766 36.8256ZM45.2002 28.0055C45.097 28.2051 44.8617 28.4655 44.5637 28.6478C44.2656 28.8321 43.9194 28.94 43.5876 28.9391C43.4699 28.9391 43.3561 28.9593 43.2452 28.9882C43.0426 28.9438 42.84 28.8822 42.6405 28.803C42.0223 28.5619 41.4446 28.1713 41.0366 27.8414C40.8321 27.6766 40.6701 27.5281 40.562 27.4249L40.4425 27.3063L40.4164 27.2792L40.4125 27.2754H40.4116C40.0142 26.8433 39.341 26.8144 38.908 27.2117C38.4749 27.6092 38.445 28.2823 38.8434 28.7182C38.879 28.7549 39.4145 29.3393 40.2911 29.9413C40.7309 30.2422 41.2565 30.5489 41.8612 30.7861C42.0011 30.8412 42.1467 30.8922 42.2963 30.9386C42.3378 31.032 42.3908 31.1209 42.4534 31.2047L42.4506 31.2067C42.4583 31.2124 42.5162 31.3958 42.5113 31.6311C42.5182 32.0236 42.3754 32.5377 42.17 32.8212C42.0697 32.9659 41.9675 33.0575 41.8682 33.1144C41.7669 33.1704 41.6647 33.207 41.4728 33.2099L41.4042 33.2089C41.3636 33.207 41.3252 33.2138 41.2856 33.2157C41.2837 33.2157 41.2827 33.2157 41.2827 33.2157C40.3587 33.2196 39.4985 32.8232 38.8638 32.3892C38.5475 32.1751 38.2938 31.9571 38.1231 31.7971C38.0391 31.718 37.9746 31.6524 37.935 31.6119L37.8936 31.5676L37.8868 31.5589H37.8859C37.5011 31.1172 36.8308 31.0689 36.3861 31.4538C35.9405 31.8396 35.8923 32.5119 36.2781 32.9574L36.2771 32.9565C36.3186 33.0028 36.8105 33.5698 37.6661 34.1524C38.2293 34.5333 38.9642 34.9278 39.8371 35.1554C39.8275 35.1805 39.8217 35.2056 39.81 35.2307C39.6982 35.4834 39.538 35.7437 39.1021 35.9984C38.8079 36.1663 38.5977 36.254 38.4501 36.2984C38.3016 36.3427 38.2187 36.3515 38.1125 36.3523C37.9747 36.3543 37.7673 36.3234 37.422 36.2529C37.3594 36.2395 37.2967 36.2356 37.234 36.2318C37.2107 36.2221 37.1887 36.2134 37.1635 36.2009C36.8105 36.0349 36.3803 35.7349 36.063 35.4794C35.9038 35.3531 35.7689 35.2374 35.6762 35.1554L35.5721 35.0609L35.548 35.0377L35.5431 35.0339C35.1178 34.627 34.4426 34.6424 34.0357 35.0676C33.6297 35.493 33.6451 36.1681 34.0704 36.5741C34.0926 36.5943 34.5411 37.0246 35.1699 37.4759C35.2817 37.5551 35.4052 37.6351 35.5287 37.7141C35.355 37.991 35.1738 38.181 34.9963 38.3073C34.7127 38.5022 34.4041 38.5947 34.0067 38.5967C33.6509 38.5977 33.2322 38.5099 32.8137 38.3325C32.6748 38.2746 32.5389 38.1926 32.4019 38.1165C32.482 37.8174 32.5263 37.5079 32.5254 37.1972C32.5263 36.5578 32.3508 35.9038 31.9901 35.3242C31.3777 34.3395 30.3563 33.7607 29.2866 33.6662C29.2866 33.6275 29.2933 33.5891 29.2933 33.5495C29.2942 32.8484 29.1014 32.1289 28.7059 31.4923V31.4943C27.9672 30.3041 26.6882 29.6463 25.388 29.6491C25.338 29.6491 25.2867 29.6578 25.2367 29.6598C25.1711 29.1071 24.9897 28.5593 24.6793 28.0597H24.6802C24.0774 27.0885 23.111 26.479 22.0684 26.288C22.0618 25.5983 21.8717 24.8952 21.4829 24.2702H21.4839C20.7461 23.083 19.4661 22.4242 18.166 22.4261C17.4629 22.4261 16.7463 22.6191 16.1088 23.0145L14.7402 23.8652C14.7074 23.79 14.666 23.7167 14.6361 23.6413C14.3979 23.0714 14.2483 22.5091 14.232 22.1214L14.2002 21.5215L9.62193 17.5248L18.3021 8.53484C18.7458 8.89851 19.201 9.25921 19.6679 9.59678C20.4414 10.1543 21.2081 10.6462 21.9913 10.976C22.4939 11.1834 22.9837 11.2345 23.4333 11.2354C24.1528 11.2326 24.8124 11.1091 25.5001 11.0088C25.5445 11.0011 25.5908 10.9973 25.6361 10.9904C24.691 11.8015 23.8662 12.6792 23.1689 13.4962C22.5815 14.1858 22.0858 14.8358 21.6932 15.3663C21.3056 15.8939 21.0066 16.3192 20.8754 16.487C20.2292 17.328 19.9515 18.334 19.9457 19.3418C19.9485 20.2794 20.1974 21.2553 20.8436 22.08C21.1658 22.4879 21.594 22.8448 22.1051 23.0879C22.6153 23.3328 23.1997 23.4582 23.8083 23.4582C24.5636 23.4562 25.3553 23.273 26.1935 22.9209C28.8246 21.8079 31.5367 21.0662 33.5775 20.6091C34.5979 20.3815 35.4515 20.2234 36.0465 20.124C36.1585 20.1056 36.252 20.0902 36.3446 20.0749L45.2728 27.7715L45.2766 27.7734L45.2795 27.7782C45.2783 27.8059 45.2647 27.8859 45.2002 28.0055ZM46.2332 21.5214L46.2022 22.1213C46.1859 22.4646 46.0691 22.9488 45.8733 23.4504C45.7739 23.7126 45.6525 23.977 45.5252 24.2373L37.7062 17.4975C37.4024 17.2353 36.9973 17.1137 36.599 17.1639C36.5297 17.1774 30.7948 17.8969 25.088 20.3024C24.5199 20.5424 24.0936 20.6167 23.8081 20.6148C23.5757 20.6148 23.4339 20.5733 23.3288 20.5231C23.1764 20.4489 23.0674 20.3436 22.9594 20.1421C22.8562 19.9436 22.7858 19.6504 22.7868 19.3417C22.781 18.8981 22.9393 18.4467 23.1166 18.2327C23.3376 17.9472 23.6075 17.5575 23.9799 17.054C24.5324 16.3056 25.2828 15.3372 26.1778 14.3949C27.0708 13.4527 28.1096 12.5403 29.1985 11.8998C30.6713 11.0347 31.9261 10.8177 33.1154 10.8138C33.8473 10.8128 34.5494 10.9044 35.2343 11.0076C35.9209 11.1089 36.5826 11.2303 37.3002 11.2342C37.7486 11.2333 38.2357 11.1822 38.7363 10.9777L38.743 10.9758C39.5262 10.6459 40.2929 10.154 41.0664 9.59655C41.5304 9.26087 41.9875 8.89827 42.4293 8.53567L50.9736 17.3847L46.2332 21.5214Z" fill="white"/>
</svg>
